<?xml version="1.0" encoding="UTF-8"?>
<svg id="Capa_2" data-name="Capa 2" xmlns="http://www.w3.org/2000/svg" viewBox="0 0 129.56 133.51">
  <defs>
    <style>
      .cls-1 {
        fill: #144473;
        stroke-width: 0px;
      }
    </style>
  </defs>
  <g id="Layer_1" data-name="Layer 1">
    <path class="cls-1" d="m63.56,113.63c-7.61-2.21-11.53-4.42-10.55-9.82.74-3.68,4.42-4.66,14.73-4.66,34.36,0,49.33-14.48,55.71-26.51,8.84-16.44,7.36-31.66.25-42.7C111.67,10.55,90.07,0,67.74,0,30.43,0,0,30.19,0,67.49c0,5.4,4.42,9.82,10.06,9.82s9.82-4.42,9.82-9.82c0-26.26,21.35-47.61,47.61-47.61,15.95,0,34.36,8.1,39.51,21.11.74,1.96,3.93,12.76-1.72,22.82-7.12,13.01-24.54,15.71-37.8,15.71-23.07,0-32.89,11.29-34.36,21.84-1.96,13.5,8.84,27.24,24.79,31.66.98.25,1.72.49,2.7.49,4.42,0,8.34-2.95,9.57-7.12,1.72-5.64-1.47-11.29-6.63-12.76"/>
  </g>
</svg>