<?xml version="1.0" encoding="UTF-8"?>
<svg id="Capa_2" data-name="Capa 2" xmlns="http://www.w3.org/2000/svg" viewBox="0 0 70.93 32.4">
  <defs>
    <style>
      .cls-1 {
        fill: #6d6e70;
        stroke-width: 0px;
      }
    </style>
  </defs>
  <g id="Layer_1" data-name="Layer 1">
    <g>
      <path class="cls-1" d="m46.39,16.2c0,1.23.25,2.45.74,3.68s1.23,2.21,1.96,2.95,1.72,1.47,2.95,1.96,2.45.74,3.68.74c1.47,0,2.95-.25,4.17-.98,1.23-.49,2.21-1.47,3.19-2.45h7.85c-.74,1.72-1.72,3.44-2.7,4.66-.98,1.23-2.21,2.45-3.68,3.19-1.23.74-2.7,1.47-4.17,1.96-1.47.49-2.95.49-4.42.49-2.21,0-4.42-.49-6.38-1.23-1.96-.98-3.68-1.96-5.15-3.44-1.47-1.47-2.7-3.19-3.44-5.15-.74-1.96-1.23-4.17-1.23-6.38s.49-4.42,1.23-6.38,1.96-3.68,3.44-5.15c1.47-1.47,3.19-2.7,5.15-3.44,1.96-.74,4.17-1.23,6.38-1.23,1.47,0,2.95.25,4.42.49,1.47.49,2.95.98,4.17,1.72s2.45,1.96,3.68,3.19,1.96,2.95,2.7,4.66h-7.85c-.98-1.23-1.96-1.96-3.19-2.45s-2.7-.74-4.17-.74c-1.23,0-2.45.25-3.68.74s-2.21,1.23-2.95,1.96-1.47,1.72-1.96,2.95c-.49,1.23-.74,2.45-.74,3.68"/>
      <path class="cls-1" d="m0,16.2c0-2.21.49-4.42,1.23-6.38.98-1.96,1.96-3.68,3.44-5.15,1.47-1.47,3.19-2.7,5.15-3.44,1.96-.74,4.17-1.23,6.38-1.23s4.42.49,6.38,1.23c1.96.98,3.68,1.96,5.15,3.44,1.47,1.47,2.7,3.19,3.44,5.15.74,1.96,1.23,4.17,1.23,6.38v14.97h-6.87v-1.72c-2.7,1.96-5.89,2.95-9.33,2.95-2.45,0-4.66-.49-6.63-1.23s-3.68-1.96-5.15-3.44c-1.47-1.47-2.45-3.19-3.19-5.15s-1.23-3.93-1.23-6.38m7.12,0c0,1.23.25,2.45.74,3.68s1.23,2.21,1.96,2.95,1.72,1.47,2.95,1.96,2.45.74,3.68.74,2.45-.25,3.68-.74,2.21-.98,2.95-1.96c.98-.74,1.47-1.72,1.96-2.95s.74-2.45.74-3.68-.25-2.45-.74-3.68-1.23-2.21-1.96-2.95-1.72-1.47-2.95-1.96-2.45-.74-3.68-.74-2.45.25-3.68.74-2.21,1.23-2.95,1.96-1.47,1.72-1.96,2.95c-.49,1.23-.74,2.45-.74,3.68"/>
    </g>
  </g>
</svg>