<?xml version="1.0" encoding="UTF-8"?>
<svg id="Capa_2" data-name="Capa 2" xmlns="http://www.w3.org/2000/svg" viewBox="0 0 222.6 44.42">
  <defs>
    <style>
      .cls-1 {
        fill: #6d6e70;
        stroke-width: 0px;
      }
    </style>
  </defs>
  <g id="Layer_1" data-name="Layer 1">
    <g>
      <path class="cls-1" d="m43.19,21.11c0,3.44-.49,6.63-1.23,9.57s-1.96,5.4-3.68,7.36-3.93,3.68-6.63,4.66c-2.7,1.23-5.89,1.72-9.57,1.72-3.19,0-5.89-.49-8.59-1.72s-4.91-2.7-7.12-4.66c-1.96-1.96-3.68-4.42-4.66-7.12-1.23-2.7-1.72-5.64-1.72-8.59s.49-5.89,1.72-8.59,2.7-5.15,4.66-7.12c1.96-1.96,4.42-3.68,7.12-4.66C16.2.74,19.14.25,22.09.25c2.45,0,4.91.25,7.12.98,2.21.74,4.17,1.72,5.89,2.95,1.72,1.23,3.19,2.7,4.42,4.42s2.21,3.68,3.19,5.64h-8.1c-.49-1.23-1.23-2.21-2.21-2.95s-1.96-1.47-2.95-2.21c-.98-.49-2.21-.98-3.44-1.47-1.23-.25-2.45-.49-3.68-.49-1.96,0-3.93.49-5.89,1.23-1.72.74-3.44,1.96-4.91,3.19-1.47,1.47-2.45,2.95-3.19,4.66s-1.23,3.68-1.23,5.89c0,1.96.49,3.93,1.23,5.89.74,1.72,1.96,3.44,3.19,4.66,1.47,1.47,2.95,2.45,4.91,3.19,1.72.74,3.68,1.23,5.89,1.23,3.68,0,6.87-.74,9.08-2.21,2.21-1.72,3.68-3.93,4.17-6.87h-12.52v-7.12h20.12v.25Z"/>
      <path class="cls-1" d="m49.82,13.5h6.87v2.95c1.47-.98,3.19-1.72,4.91-2.21s3.93-.74,6.14-.74v6.87c-1.47,0-2.95.25-4.17.74s-2.45,1.23-3.44,1.96-1.72,1.96-2.45,2.95c-.49,1.23-.98,2.45-.98,3.68v13.74h-6.87V13.5Z"/>
      <path class="cls-1" d="m74.12,28.22c0-2.21.49-4.42,1.23-6.38s1.96-3.68,3.44-5.15,3.19-2.7,5.15-3.44c1.96-.74,4.17-1.23,6.38-1.23s4.42.49,6.38,1.23c1.96.74,3.68,1.96,5.15,3.44,1.47,1.47,2.7,3.19,3.44,5.15s1.23,4.17,1.23,6.38v14.97h-6.87v-1.72c-2.7,1.96-5.89,2.95-9.33,2.95-2.45,0-4.66-.49-6.63-1.23s-3.68-1.96-5.15-3.44c-1.47-1.47-2.45-3.19-3.19-5.15-.74-1.96-1.23-3.93-1.23-6.38m6.87,0c0,1.23.25,2.45.74,3.68.49,1.23,1.23,2.21,1.96,2.95s1.72,1.47,2.95,1.96,2.45.74,3.68.74,2.45-.25,3.68-.74,2.21-1.23,2.95-1.96c.74-.74,1.47-1.72,1.96-2.95.49-1.23.74-2.45.74-3.68s-.25-2.45-.74-3.68c-.49-1.23-1.23-2.21-1.96-2.95s-1.72-1.47-2.95-1.96-2.45-.74-3.68-.74-2.45.25-3.68.74-2.21,1.23-2.95,1.96c-.74.74-1.47,1.72-1.96,2.95-.49,1.23-.74,2.45-.74,3.68M98.17,0h-7.36l-4.17,10.06h7.36l4.17-10.06Z"/>
      <path class="cls-1" d="m126.15,10.31c0-.49-.25-.98-.49-1.23s-.74-.49-1.23-.49-.98.25-1.23.49c-.25.25-.49.74-.49,1.23v11.53h6.87v6.87h-6.87v14.48h-7.12v-14.48h-2.7v-6.87h2.7v-11.53c0-1.23.25-2.45.49-3.44s.98-1.96,1.47-2.7c.74-.74,1.72-1.47,2.7-1.96s2.45-.74,3.93-.74,2.95.25,4.17.74,1.96.98,2.7,1.72c.74.74,1.23,1.72,1.47,2.7.25.98.49,2.21.49,3.44v1.72h-6.87v-1.47h0Z"/>
      <path class="cls-1" d="m137.93,5.89c0-1.23.49-2.21,1.23-3.19.74-.74,1.96-1.23,2.95-1.23,1.23,0,2.21.49,3.19,1.23.74.74,1.23,1.96,1.23,3.19s-.49,2.21-1.23,2.95-1.96,1.23-3.19,1.23-2.21-.49-2.95-1.23c-.98-.74-1.23-1.72-1.23-2.95m.74,7.61h6.87v29.94h-6.87V13.5Z"/>
      <path class="cls-1" d="m159.53,28.22c0,1.23.25,2.45.74,3.68s1.23,2.21,1.96,2.95,1.72,1.47,2.95,1.96,2.45.74,3.68.74c1.47,0,2.95-.25,4.17-.98,1.23-.49,2.21-1.47,3.19-2.45h7.85c-.74,1.72-1.72,3.44-2.7,4.66-.98,1.23-2.21,2.45-3.68,3.19-1.23.74-2.7,1.47-4.17,1.96-1.47.49-2.95.49-4.42.49-2.21,0-4.42-.49-6.38-1.23-1.96-.98-3.68-1.96-5.15-3.44-1.47-1.47-2.7-3.19-3.44-5.15-.74-1.96-1.23-4.17-1.23-6.38s.49-4.42,1.23-6.38,1.96-3.68,3.44-5.15c1.47-1.47,3.19-2.7,5.15-3.44,1.96-.74,4.17-1.23,6.38-1.23,1.47,0,2.95.25,4.42.49,1.47.49,2.95.98,4.17,1.72s2.45,1.96,3.68,3.19,1.96,2.95,2.7,4.66h-7.85c-.98-1.23-1.96-1.96-3.19-2.45s-2.7-.74-4.17-.74c-1.23,0-2.45.25-3.68.74s-2.21,1.23-2.95,1.96-1.47,1.72-1.96,2.95c-.49,1.23-.74,2.45-.74,3.68"/>
      <path class="cls-1" d="m190.2,28.22c0-2.21.49-4.42,1.23-6.38s1.96-3.68,3.44-5.15c1.47-1.47,3.19-2.7,5.15-3.44,1.96-.74,4.17-1.23,6.38-1.23s4.42.49,6.38,1.23c1.96.98,3.68,1.96,5.15,3.44,1.47,1.47,2.7,3.19,3.44,5.15.74,1.96,1.23,4.17,1.23,6.38v14.97h-6.87v-1.72c-2.7,1.96-5.89,2.95-9.33,2.95-2.45,0-4.66-.49-6.63-1.23s-3.68-1.96-5.15-3.44c-1.47-1.47-2.45-3.19-3.19-5.15s-1.23-3.93-1.23-6.38m6.87,0c0,1.23.25,2.45.74,3.68s1.23,2.21,1.96,2.95,1.72,1.47,2.95,1.96,2.45.74,3.68.74,2.45-.25,3.68-.74,2.21-.98,2.95-1.96c.74-.74,1.47-1.72,1.96-2.95s.74-2.45.74-3.68-.25-2.45-.74-3.68-1.23-2.21-1.96-2.95-1.72-1.47-2.95-1.96-2.45-.74-3.68-.74-2.45.25-3.68.74-2.21,1.23-2.95,1.96-1.47,1.72-1.96,2.95-.74,2.45-.74,3.68"/>
    </g>
  </g>
</svg>