<?xml version="1.0" encoding="UTF-8"?>
<svg id="Capa_2" data-name="Capa 2" xmlns="http://www.w3.org/2000/svg" viewBox="0 0 91.79 29.7">
  <defs>
    <style>
      .cls-1 {
        fill: #144473;
        stroke-width: 0px;
      }
    </style>
  </defs>
  <g id="Layer_1" data-name="Layer 1">
    <g>
      <path class="cls-1" d="m0,24.54c0-2.95,2.21-5.15,4.42-5.15,2.45,0,4.42,1.96,4.42,5.15s-1.72,5.15-4.42,5.15c-2.45,0-4.42-2.21-4.42-5.15"/>
      <path class="cls-1" d="m29.45,28.71c-.74.25-2.7.74-4.91.74-7.36,0-12.03-5.15-12.03-14.48C12.52,6.14,17.67,0,25.52,0c1.72,0,3.44.49,4.17.74l-.98,6.14c-.74-.25-1.47-.49-2.95-.49-3.68,0-5.89,3.44-5.89,8.59s2.21,8.34,5.64,8.34c1.23,0,1.96-.25,2.95-.49l.98,5.89Z"/>
      <path class="cls-1" d="m53.26,14.73c0,12.03-6.63,14.97-11.04,14.97-6.87,0-11.04-5.4-11.04-14.73,0-10.31,5.4-14.97,11.04-14.97,6.87,0,11.04,5.64,11.04,14.73m-14.23,0c0,4.91.74,9.08,3.44,9.08,2.45,0,3.19-4.91,3.19-9.08,0-3.93-.74-8.84-3.19-8.84-2.95,0-3.44,4.91-3.44,8.84"/>
      <path class="cls-1" d="m57.67,9.08c0-3.19-.25-5.89-.25-8.59h6.63l.25,3.44h0C65.77,1.72,68.23,0,71.17,0,74.36,0,76.33,1.47,77.55,3.93h0c.74-1.23,1.72-2.21,2.95-2.95s2.45-.98,3.93-.98c5.15,0,7.36,3.93,7.36,11.04v18.16h-7.61V12.27c0-3.19-.25-5.89-2.7-5.89-1.47,0-2.45.98-2.95,2.7,0,.49-.25,1.23-.25,1.96v18.16h-7.61V11.04c0-1.96-.25-4.91-2.7-4.91-1.23,0-2.45.98-2.95,2.45-.25.49-.25,1.23-.25,2.21v18.16h-7.61V9.08h.49Z"/>
    </g>
  </g>
</svg>